# xmcd CD database file
#
# Track frame offsets:
#	195
#	12720
#	29190
#	40980
#	51642
#	63180
#	77650
#	90460
#	107012
#	116737
#	128860
#	141592
#
# Disc length: 2048 seconds
#
# Revision: 2
# Processed by: cddbd v1.5.1PL0 Copyright (c) Steve Scherf et al.
# Submitted via: CDex 1.51
#
DISCID=b207fe0c
DTITLE=Seldom Scene - Old Train
DYEAR=1973
DGENRE=Bluegrass
TTITLE0=Appalachian Rain
TTITLE1=Wait A Minute
TTITLE2=Different Roads
TTITLE3=Old Train
TTITLE4=Through The Bottom of the Glass
TTITLE5=Old Crossroads
TTITLE6=Pan American
TTITLE7=Working On A Building
TTITLE8=Walk Through This World With Me
TTITLE9=Maybe You Will Change Your Mind
TTITLE10=Travelin' On And On
TTITLE11=C and O Canal
EXTD=YEAR: 1973
EXTT0=
EXTT1=
EXTT2=
EXTT3=
EXTT4=
EXTT5=
EXTT6=
EXTT7=
EXTT8=
EXTT9=
EXTT10=
EXTT11=
PLAYORDER=
